<svg width="30" height="12" viewBox="0 0 30 12" fill="none" xmlns="http://www.w3.org/2000/svg">
<path d="M29.234 10.02C28.816 10.02 28.477 10.359 28.477 10.777C28.477 11.195 28.816 11.534 29.234 11.534C29.652 11.534 29.991 11.195 29.991 10.777C29.991 10.568 29.906 10.379 29.769 10.242C29.632 10.105 29.443 10.02 29.234 10.02ZM29.669 11.219C29.556 11.332 29.4 11.402 29.227 11.402C28.882 11.402 28.602 11.122 28.602 10.777C28.602 10.432 28.88 10.154 29.224 10.152L29.227 10.151C29.572 10.152 29.852 10.431 29.852 10.777C29.852 10.95 29.782 11.106 29.669 11.219ZM29.521 10.777C29.56 10.736 29.584 10.68 29.584 10.619C29.584 10.615 29.584 10.611 29.584 10.607C29.584 10.602 29.585 10.597 29.585 10.592C29.585 10.522 29.554 10.459 29.506 10.416C29.451 10.372 29.38 10.345 29.303 10.345C29.293 10.345 29.284 10.345 29.274 10.346H28.935V11.219H29.097V10.863H29.213L29.429 11.219H29.599L29.374 10.848C29.432 10.842 29.483 10.817 29.521 10.778V10.777ZM29.288 10.716H29.096V10.469H29.288C29.314 10.47 29.337 10.476 29.36 10.485L29.358 10.484C29.378 10.491 29.394 10.504 29.404 10.522C29.42 10.538 29.419 10.561 29.419 10.592C29.419 10.593 29.419 10.594 29.419 10.594C29.419 10.618 29.413 10.641 29.404 10.661C29.391 10.676 29.375 10.688 29.359 10.698H29.358C29.337 10.706 29.314 10.712 29.289 10.714L29.288 10.716ZM0 0.162001H2.171V2.333H0V0.162001ZM7.842 3.49C7.829 3.49 7.814 3.491 7.799 3.491C7.323 3.491 6.872 3.602 6.472 3.8L6.489 3.792C6.078 3.995 5.735 4.277 5.467 4.62L5.462 4.626L5.353 4.772V3.645H3.321V11.463H5.369V7.447C5.367 7.411 5.366 7.37 5.366 7.328C5.366 6.754 5.572 6.229 5.913 5.821L5.91 5.825C6.233 5.482 6.69 5.269 7.196 5.269C7.202 5.269 7.209 5.269 7.215 5.269C7.248 5.267 7.286 5.265 7.325 5.265C7.815 5.265 8.257 5.474 8.565 5.808L8.566 5.809C8.849 6.186 9.018 6.662 9.018 7.178C9.018 7.224 9.017 7.27 9.014 7.315V7.309V11.463H11.092V7.029C11.097 6.958 11.1 6.875 11.1 6.791C11.1 5.884 10.773 5.054 10.231 4.411L10.236 4.416C9.672 3.84 8.886 3.484 8.017 3.484C7.955 3.484 7.893 3.486 7.832 3.489H7.84L7.842 3.49ZM25.518 0H27.581V11.472H25.518V0ZM23.332 4.674C22.98 4.31 22.555 4.017 22.082 3.819L22.057 3.81C21.59 3.614 21.046 3.5 20.476 3.5C20.456 3.5 20.435 3.5 20.415 3.5H20.418C20.409 3.5 20.398 3.5 20.386 3.5C18.723 3.5 17.295 4.508 16.681 5.947L16.671 5.973C16.47 6.429 16.353 6.962 16.353 7.521C16.353 7.536 16.353 7.551 16.353 7.566V7.564C16.353 7.573 16.353 7.584 16.353 7.595C16.353 8.157 16.464 8.694 16.664 9.184L16.654 9.156C16.859 9.657 17.144 10.085 17.497 10.446L17.496 10.445C17.858 10.81 18.293 11.103 18.776 11.302L18.802 11.311C19.285 11.517 19.847 11.636 20.437 11.636C20.452 11.636 20.467 11.636 20.482 11.636H20.48C20.515 11.637 20.557 11.638 20.599 11.638C21.938 11.638 23.139 11.044 23.952 10.105L23.957 10.099L22.474 8.969C21.981 9.504 21.278 9.838 20.496 9.842C20.463 9.844 20.424 9.845 20.385 9.845C19.895 9.845 19.44 9.694 19.065 9.436L19.073 9.441C18.716 9.176 18.453 8.8 18.335 8.365L18.332 8.351L18.308 8.281H24.45V7.548C24.45 7.541 24.45 7.533 24.45 7.525C24.45 6.964 24.342 6.427 24.146 5.936L24.156 5.965C23.95 5.466 23.671 5.038 23.328 4.672L23.33 4.674H23.332ZM18.326 6.829C18.485 5.923 19.266 5.244 20.205 5.244C20.272 5.244 20.338 5.247 20.403 5.254L20.395 5.253C20.455 5.246 20.525 5.242 20.595 5.242C21.532 5.242 22.312 5.918 22.472 6.809L22.474 6.821L18.326 6.829ZM14.285 0.602H12.222V8.166C12.221 8.204 12.221 8.249 12.221 8.294C12.221 8.821 12.281 9.334 12.393 9.827L12.384 9.781C12.479 10.185 12.671 10.535 12.935 10.817L12.934 10.816C13.204 11.082 13.543 11.279 13.922 11.376L13.937 11.379C14.364 11.488 14.855 11.551 15.361 11.551C15.412 11.551 15.463 11.55 15.513 11.549H15.505H15.775V9.633C15.752 9.633 15.725 9.634 15.699 9.634C15.465 9.634 15.234 9.617 15.009 9.584L15.035 9.587C14.846 9.569 14.677 9.49 14.547 9.37L14.548 9.371C14.434 9.245 14.356 9.083 14.332 8.904V8.9C14.302 8.695 14.285 8.458 14.285 8.217C14.285 8.191 14.285 8.165 14.286 8.139V8.143V5.416H15.777V3.646H14.286L14.285 0.602ZM0.054 3.646H2.117V11.464H0.054V3.646Z" fill="white"/>
</svg>
