<svg width="24" height="24" viewBox="0 0 24 24" fill="none" xmlns="http://www.w3.org/2000/svg">
<g clip-path="url(#clip0_1413_3432)">
<path fill-rule="evenodd" clip-rule="evenodd" d="M18.9244 21.1014C17.0704 22.1841 15.1096 20.733 13.6576 19.1468C14.9812 17.3536 16.2448 15.1762 16.3132 12.9499C16.3708 10.8337 15.2284 9.21186 13.5412 8.59579C12.6496 8.26562 11.656 8.23463 10.7428 8.50379C9.06157 8.99906 7.85677 10.4569 7.71277 12.3423C7.51477 14.724 8.91638 17.2292 10.3516 19.1456C9.50438 20.0847 8.35597 21.1122 7.11277 21.3897C4.95157 21.8993 3.10957 19.8526 3.83557 17.6204C4.20877 16.4839 9.97957 3.68152 10.96 2.90633C11.5516 2.42543 12.49 2.4143 13.1044 2.95262C14.0056 3.7302 19.9108 16.6501 20.224 17.7973C20.5912 19.1539 20.0008 20.4842 18.9244 21.1014ZM12.0028 17.0772C11.5012 16.3499 11.0596 15.6332 10.7032 14.8126C10.1812 13.5912 9.83798 11.9846 10.9408 11.2513C11.6428 10.7811 12.6352 10.8409 13.2544 11.3983C14.0356 12.0898 13.84 13.3687 13.486 14.3532C13.108 15.382 12.5392 16.3116 12.0028 17.0772ZM14.8996 1.16551C13.2784 -0.442285 10.5952 -0.34299 9.07717 1.19422C7.70317 2.54721 1.50038 15.9433 1.26038 17.7317C0.755175 21.1602 3.48998 24.1939 6.76958 23.969C8.85758 23.8554 10.5688 22.5633 12.004 21.0429C14.458 23.6567 17.608 25.035 20.4496 23.0743C21.916 22.0706 22.8328 20.3253 22.8028 18.4472C22.7752 15.9613 16.0396 2.2601 14.8996 1.16551Z" fill="white"/>
</g>
<defs>
<clipPath id="clip0_1413_3432">
<rect width="24" height="24" fill="white"/>
</clipPath>
</defs>
</svg>
