<svg width="21" height="24" viewBox="0 0 21 24" fill="none" xmlns="http://www.w3.org/2000/svg">
<path d="M9.9283 5.7645C9.67283 4.37184 10.3313 2.93864 11.1244 1.97278C11.9983 0.907078 13.4982 0.0898125 14.78 0C14.9965 1.46011 14.4006 2.88272 13.6162 3.88898C12.7748 4.97002 11.3282 5.80833 9.9283 5.7645ZM17.4466 10.8108C17.8432 9.7043 18.6289 8.70872 19.8478 8.037C18.6161 6.49987 16.8866 5.60747 15.2546 5.60747C13.0953 5.60747 12.1823 6.63623 10.6825 6.63623C9.13747 6.63623 7.96536 5.60747 6.095 5.60747C4.26092 5.60747 2.30863 6.72534 1.07047 8.63451C0.61522 9.34022 0.30683 10.2169 0.138642 11.1934C-0.328045 13.9327 0.36908 17.5008 2.4486 20.6689C3.45969 22.2062 4.80739 23.9378 6.56802 23.9529C8.13641 23.9683 8.58135 22.9502 10.7045 22.9397C12.8309 22.9276 13.2339 23.9635 14.8001 23.9485C16.5613 23.9337 17.9832 22.0173 18.9943 20.4802C19.7143 19.3771 19.9865 18.82 20.5463 17.5729C17.6998 16.4994 16.529 13.3627 17.4466 10.8108Z" fill="white"/>
</svg>
